<mxfile host="app.diagrams.net" agent="Mozilla/5.0 (Windows NT 10.0; Win64; x64) AppleWebKit/537.36 (KHTML, like Gecko) Chrome/129.0.0.0 Safari/537.36" version="24.7.17">
  <diagram id="C5RBs43oDa-KdzZeNtuy" name="Page-1">
    <mxGraphModel dx="880" dy="426" grid="1" gridSize="10" guides="1" tooltips="1" connect="1" arrows="1" fold="1" page="1" pageScale="1" pageWidth="827" pageHeight="1169" math="0" shadow="0">
      <root>
        <mxCell id="WIyWlLk6GJQsqaUBKTNV-0" />
        <mxCell id="WIyWlLk6GJQsqaUBKTNV-1" parent="WIyWlLk6GJQsqaUBKTNV-0" />
        <mxCell id="zkfFHV4jXpPFQw0GAbJ--0" value="Persona" style="swimlane;fontStyle=0;align=center;verticalAlign=top;childLayout=stackLayout;horizontal=1;startSize=26;horizontalStack=0;resizeParent=1;resizeLast=0;collapsible=1;marginBottom=0;rounded=0;shadow=0;strokeWidth=1;" parent="WIyWlLk6GJQsqaUBKTNV-1" vertex="1">
          <mxGeometry x="160" y="120" width="220" height="190" as="geometry">
            <mxRectangle x="230" y="140" width="160" height="26" as="alternateBounds" />
          </mxGeometry>
        </mxCell>
        <mxCell id="zkfFHV4jXpPFQw0GAbJ--1" value="- nombre: string" style="text;align=left;verticalAlign=top;spacingLeft=4;spacingRight=4;overflow=hidden;rotatable=0;points=[[0,0.5],[1,0.5]];portConstraint=eastwest;" parent="zkfFHV4jXpPFQw0GAbJ--0" vertex="1">
          <mxGeometry y="26" width="220" height="26" as="geometry" />
        </mxCell>
        <mxCell id="zkfFHV4jXpPFQw0GAbJ--2" value="- apellido: string" style="text;align=left;verticalAlign=top;spacingLeft=4;spacingRight=4;overflow=hidden;rotatable=0;points=[[0,0.5],[1,0.5]];portConstraint=eastwest;rounded=0;shadow=0;html=0;" parent="zkfFHV4jXpPFQw0GAbJ--0" vertex="1">
          <mxGeometry y="52" width="220" height="26" as="geometry" />
        </mxCell>
        <mxCell id="eWMMLCh0qh9v_tugQdZ7-1" value="- fechaNacimiento: dateTime" style="text;align=left;verticalAlign=top;spacingLeft=4;spacingRight=4;overflow=hidden;rotatable=0;points=[[0,0.5],[1,0.5]];portConstraint=eastwest;rounded=0;shadow=0;html=0;" vertex="1" parent="zkfFHV4jXpPFQw0GAbJ--0">
          <mxGeometry y="78" width="220" height="26" as="geometry" />
        </mxCell>
        <mxCell id="zkfFHV4jXpPFQw0GAbJ--3" value="- telefono:string" style="text;align=left;verticalAlign=top;spacingLeft=4;spacingRight=4;overflow=hidden;rotatable=0;points=[[0,0.5],[1,0.5]];portConstraint=eastwest;rounded=0;shadow=0;html=0;" parent="zkfFHV4jXpPFQw0GAbJ--0" vertex="1">
          <mxGeometry y="104" width="220" height="26" as="geometry" />
        </mxCell>
        <mxCell id="zkfFHV4jXpPFQw0GAbJ--4" value="" style="line;html=1;strokeWidth=1;align=left;verticalAlign=middle;spacingTop=-1;spacingLeft=3;spacingRight=3;rotatable=0;labelPosition=right;points=[];portConstraint=eastwest;" parent="zkfFHV4jXpPFQw0GAbJ--0" vertex="1">
          <mxGeometry y="130" width="220" height="8" as="geometry" />
        </mxCell>
        <mxCell id="eWMMLCh0qh9v_tugQdZ7-2" value="+ notificarCumpleanio():void" style="text;align=left;verticalAlign=top;spacingLeft=4;spacingRight=4;overflow=hidden;rotatable=0;points=[[0,0.5],[1,0.5]];portConstraint=eastwest;" vertex="1" parent="zkfFHV4jXpPFQw0GAbJ--0">
          <mxGeometry y="138" width="220" height="26" as="geometry" />
        </mxCell>
        <mxCell id="zkfFHV4jXpPFQw0GAbJ--5" value="+ esSuCumpleHoy():bool" style="text;align=left;verticalAlign=top;spacingLeft=4;spacingRight=4;overflow=hidden;rotatable=0;points=[[0,0.5],[1,0.5]];portConstraint=eastwest;" parent="zkfFHV4jXpPFQw0GAbJ--0" vertex="1">
          <mxGeometry y="164" width="220" height="26" as="geometry" />
        </mxCell>
        <mxCell id="eWMMLCh0qh9v_tugQdZ7-0" value="" style="shape=image;verticalLabelPosition=bottom;labelBackgroundColor=default;verticalAlign=top;aspect=fixed;imageAspect=0;image=data:image/png,iVBORw0KGgoAAAANSUhEUgAAAvcAAABbCAYAAAD3PqoHAAAAAXNSR0IArs4c6QAAAARnQU1BAACxjwv8YQUAAAAJcEhZcwAADsMAAA7DAcdvqGQAAErNSURBVHhe7Z1rqF3V1fd3CqUfnnpJ9MNDUBGjoIhUbNTiq1KFmEaLKDVNvRAKFm1q6YvWekkVP3iJaW0FsZpKBbFq6hOLYk29gRbSCl45pUoKmiK2+qWp9fLQl35p3v2bZ/1PxhlnrrXmWnvtffbemT9YZ60115xjjjHmmHPNvW5nyZ4+vUwmk8lkMplMJjPxfKZYZzKZTCaTyWQymQknT+4zmUwmk8lkMpkpIU/uM5lMJpPJZDKZKSFP7jOZTCaTyWQymSlhKJP7H/7wh72//OUvxV5G/OhHP+otW7as949//KNIyYwbxO3Pf/7z3pFHHhnaqw20LzLGvQ+g569+9aveiSee2NhW7Pv9739f7DXnt7/9be873/lOb8mSJUVKZlR0EeNN+eMf/xjOC4x/g8TNYjBIP9lXIcbwFTE2Ce3NePSNb3yj95WvfKVImX5iNtNPGZfppxb6AGlV8b8Y40pTBonLSYvp1pN7jCMIYo141VVX9TZu3BgCJRU5jZO9goOAisnPZIbJoYce2tu1a1ex1wxi/oorruhdfvnlvSOOOKJIHV/233//3muvvVbspYN9Tz/9dJj0tOHoo4/uvfrqq8VeexgvYgtjCOMTY0hmIYPEeBv222+/sP7nP/8Z1pNG236yrzPKGGsLYwTt++ijjxYp+wZlMf3hhx+27qejHlfaMoiOk2AftJrcM7H/5JNPevfee2+RMp+DDjqo97Of/az3ta99LfzaqYMrOrfffnvvgQce6PFlzpdffjmkH3zwwWE9LVxzzTWh4+CfzHjChJxBrw2cJIh5Yn8SIA7PPvvsYq85t956a+izXAFqCn7uoh8wXmzdujVsr169Ouzv3r27d9lll4XxiatSeYI/n0FivC3UecABBxR7k8Wg/WRfhPY+5ZRTir3xhvY99dRTeytXrixS9g2wmYsgli984Qu9E044odjbCz5i7sIcpozFGFeaMkhcTlJMQ6vJPUFRN9gRDJxguXpWx2233da77rrrglygLEG0ZcuWsJ/JTAI33nhjb926dSF+9xVuuOGG3iWXXLKoE+hDDjmk2JpF4weTfa5MPfbYY8WRTCaTibMvjduZ6WeoL9Rycn322WeTHs954403iq29cOvfgyyuxnHrnWfAuOpfBY8NkJ/He9imDM+ZCa462seBYo8Z+EeGqFPPqekxABYh/WwaeuuZUw/ySSc/z3XKX0yY9Awbd0soTx7SRFnZGNKJRcR0tT6z/mZtJ3Ecw5cqX1c/UF7P9FGmyufKYxfyC6sbeW0s6LEx6cy2ynsdubskO5Bzyy23FEf2Qpxgn/Qgv/UFMrhSvGbNmiJlL1VlWZe1cV3s1rW99Y9fYj63WJ+wsB1rW/0gT5lAy07koe8777xTHNmLbSvVa/3chDPPPDOsH3/88bCG1JghH7qyUD+LLcc2+QXH1b9ln72jgT91HNR2LL4t6mKtTpcYKTEOyFHd5MMftm4bk9aXrG0+sLLw47Zt24oje6FM0/ZWXyA/8ilvqWrjMrBHsZlSBh2JZ+qnrD2PqCz2K837Bx3VHizIIc0i38hWZPg8tl7WNpaatFWVnDLa+NnTpF+gs/JSJz6L9TH0x/cxWbSZypfpi13yBfYhV1ifso0s2lGoTunn2yuFqv6PLv58IRup29OFPtRt7bakjit27Gcd0zUVylpZNgagaVyST4tQeZtWBvVV9eW6mBEclwwW6yObngz/obYtFN+8eXOxF4c8GzZsKPbiIIN8K1eu3LNjx44idSEzMzN7VqxYMZdny5YtlTrs3r17z/bt20OedevWhfwbN27c0//REY5v3bo11Llr166QFz3Ja3UgTXlAdUoGIJs0i09DZiwf8lmonzqoa+nSpXP78g15sIV6ZW9V2TLqdKWs9Rny0V16YL+gLcij+tlHhyqQRz7yU051W51pI+ygvYEyvu66WCBd+lAem6xdgnrJ5/1oZZHmZbOPnoJt0jx1ZTku30pP2pjjVl8fu+T1Otu2J4198gD+Yp/FY/UDlZW/rXy1iQWd8GEVyKK8by8Wge7Uo3rJSxnb12LIpz4ftlvbmsQMaRxnG/tpA9tmpEsOsK/2YFHdjDFA3Yp15JCu+mybINvrpDKiThcP+tTFOBBvto1Ys09e2WVjEnnkQQZpajfAXpsmWaRJPvKQ3aS9FcfYAJS1+evaOAZtYfWSPdhqsXKoX7Kp39eHb6xdpGkf0BEfqj0Ud0K+sW2G3eQTVecv9lPbKuU86Enxs+yuk5PSL8D6w+pJGUCW0lhjD1j50kV+oIygHalX+ZRH7eJ9is3kVfxRp/SjbsphA/upUA758qN8qP6OvmxLB2xHJ+oiTb6AFH3Q3fYfkN2CsrLbti9y8Jevw+dDX9I5DooVyjWFMpJFneiOLMluG5eKEUssLVaW+sgrH7CPjkBaVcx45Hu1t0COHfdSWDgbaQBKWKfFsIZWgQNQHpkYbp0nFMwWZPtBwIPMWCB5Z+FANQJQF/ukW6SjUINYUtIUiBYFAkEACiZvd0rZGKm6su8DjDTyCvxn69KgUwW+lX9BOtv2Zt+3F2nW5ymxQH4fe6RZOdRT5kfZiq/ZZy2Qa+WwHYvDlLJlbQyke1+ktL3a1Ma30nzfIs22qwZQi+ywbSfIzzHfTwQ6cDzWXqQLdPe2Kqas/zzyn9UZWaTZPp4aM963QLoti0z5kXTqsvazjRwrW/63+ZQmUuKlSpcYKTEO5PF9Xn60/Zz9urEBWWVtKV3btDdlvS3WFylt7EEPe5z28faAT1Pc1eUD0mwbUp/1qewWHPN2YpvVk23bv6W37aPs17VVihxPip/ln6rYBHQhX1W/aNrHbJ0xPZRm/UD72DYCybO2su/jlnj17ZVyPvak9H/pjnyBL/CDdEjVp8pmD2nWXynjCnHldQXih/Syfh5DvrGxii1WTtu4jNkcS4uVRXZVXwb2fcyUQXt4v2KT78d1DPWxHOC2ScpXBniG/+233+71Hdp75ZVXeqeddlq4lWFvH/I2+4UXXjjvFgWyebPb3jqLcfjhhxdbs3BLi3J9J87J0gu80veJJ54IjxYN61k8HlnqB+o8e84555xwzN8+888VNynbltgLcC+88EKxNftWPY9O4UtuH/PuRB3clmLRLVSe1/b0O0u0PXmhRaTGQqzt8J1Al7POOqvYm8W/FMRLRv2+Eta6xeZjGpknnXRSsbeXlLLCt7HwsZvS9mq7Dz74IKwty5cvL7bi8HgRtxYt6N8fJKNflJB+O3fuDGvP888/H9beP75teHyGuq1diqky2RZ8otu13/72t8P7Dy+++OJc3KTGDDI8559/fohxbpUyJiFTjyTxUjHjiLWHbepHNv3DEotJ5UmJlypdYqTEOPXjv+OOO65ImeWCCy4Ia/toE1SNDcQgsk4//fSwL3yZNu19zDHHhDV+kc/sLe425wjGMMYyfMnjAyeffHJxZHjUjZ34xsch7Ug5oFzd+UtUtVUTOZZBzsVlVPWLpn2sKxT/7733XliLNmNyCk3OF7YP4wv6ODrAKOYHKeOKHtfk62iW9evXh7U9F9ehvHYeQB+Sv2AYcVlH6jzIx0wZvMdG2+FfQfxfeumlxV4aQ5/cN4EA5UU4TfJpTILb0v/FFBrTL7bBmxCTpWeB1VGGCT8eYjrcc889RY5yBinbBXQW2ufKK68MJ3LarA5OoEzqmSgedthhvYceeqg4shf0p+01YCvIL7roorAWXcQCnT6l06ELJ1t+8NH58H0qg5Qto67tOSnh47vvvjv4nIVnnimX4h9NIiyxk28KH3/8cVin1EsMxeyKPaPo4ccDfVdliBsN+qJtzDB4P/nkk2FSdNRRR817HhJi/opNqlKoi5c6XTypMQ5qK9GmzT/99NOwLvuxamna3ujD19R4n+Lcc88N44+frLRpYyb1+JJJ3HPPPVekDo82Y2eMmJ2xd1nqaCOn63NxHV32sVSa2FI3JqfS9nzhv3LTlT5lNBlXNCaIYX5VZ9Rx2VVfFlyooe1oeyAeDjzwwMb6j8Xk3r/woEn+xo0bw68ujBN8W9vjX6hoQqys0tCDSdEwYRIbqyPFpkHKDgr1Mnkk4PheecrkCy6++OJw8uQHHJOUWCdH1oYNG8LLOfzyJsi3b9++4OpkV7EQe5nbQvxxJwl9mDBWXSX1DFK2irq2J3Z/8Ytf9D766KMwaeFqHFfjH3744XC8jrIfttxVaUvKFaOyly7tGDAIg8QMbffMM8+EH6R8uteOW5zoYu0B+sZ7CqnxUqVLjLoYF/4KpeDk0pS33nqr2CqnTXvr/MAYgl5nnHHGvKtyTduYH0fXX399uMvD512HNQkQqWMnd7A92Gl9E7OrzRjYRk7X5+I6uupjTVB9KT8iujgfD3K+8D/MRzE/SB1X3n///WJrPm1+nMXOI/hKjDIuU/tyU5jz6Or9I488MnenowlDn9xjPLfTquBWSiwIdYtYHZdbcNzG9Y371FNPFVvp0GmYqNx0003z6mbwfPPNN8M2DcaPi9TbWFaO72gx9IucTyhaUgJxkLLQVFcPt80ZbP3V9DoYcNauXRtO0GVwsuWKAJMXfnFzBcl/erWrWCA2+bERiz/x0ksvhXVVx6U9sM2TUrYpKW2PPUx68CFXvPAjV2yq/C7wrf9RDciM2aH4KXvchzs0EPOPhcdNqNcO1PDTn/507nGMQRgkZuzVcWKRT/fq9it6w/333x/WAr8QX/7uQRUp8VKlS4yUGNd4iH9sPm2fd955YZ2C4sA/yuNp097EpOKSWKYs45Bu/7dpY+6AcNenSTsNQsrYyZ0J8vi7MnfccUdoq5TzVwpt5XR5Lk6hyz7WBD1SuGrVqrAuY9DzsRjkfME8ioti0JU+VaSMK9LjrrvuCmvB/0mCOr9a9I35a6+9NqwFd900Xgwal9aWlHlR23lQHfRLfMckHx/XfXo+Sv+k34r+r4rwkkBfgSIlDnnqXiQgT//Xz7yXLnbsWPjlBL1QIZmbN28OLx6QtwyVIZ99GQf0Mgb18LICi82nshznhQbqoU7SrF562QedyIOcfpCFNI7hK1CaXv4ApVEvspFhZUtH8nnqysZI0VV2W1n4hDTaCZQHOYAs8pNGO/oXaAS+RAbyqIvylMFOvZSCHLU9C/phH/oJ1S8dfCwgn33k2HanbsooDT3ZJ13thE8kl3rUBqqfNbIpwzHKKS5sXZBSVnl8G8tG8nu5dW2PHzhOPfIjdpFXdoLqsHWTpnZSXnQkzZYVyEaPKpBFPcgB6qAMaeiKfSxKQya6al0FPpWt3k8W2cpSFTMcJ69FekhP/EUasE/d+EeyWLNv+4HaTHlAsaZ8KfFSpUuMlBgH+ZE0yWabckI+tPWRT/KFlS9ZlCFNdpDWtL3xHfVYP1Ne+3VtHAP/0VaURSe1gcqD5Np+In9hq4jls/5hW3mQD+gm39BWLORDJ+WTbxQXID3Jhw4s2EpZUD2UE1YXUScnhmSzlPlZcllXkdIv0AWd0VH5WLOvPIAuthzE9OA4aWoDwE9WnuRbn8vumH9kB8fwB7Kt70njuGIqhnRVnayRh+0co9+gF3lIU39GJrpqH+r0QX+OeVtUDluF7LZxLR9aPdRu1KXyahP5n7yUIa9I8Q2gP/lYyyYW0TYu1ZcpQ150kx84Jvt8WdUnHSgrHfEPi/J4P9ehdrZ6NqHV5F4NYRfrPCGjYscsOBLn4SAClDIKSO8MZBEYyqOOGEPOsYsHxyGHYzSKAlIgX8dpbPRRXovtSMhAd/Kok6rBtcgnyMN+2Y0PZLP3s6+zqmwVVbrGfFbmR+pmGznkUWcnvQzqQF8WfE+7s0390p08yJRddkFXQZ1lseDLldkFto3RQzFBXeiHXmo/1qTJ72pf0qxMUVe2rI1j+lrq2p5tfCP/2IUyHK+qg7iQ3izEDLrHQJ5tlxjUh47IUn7kI9e2G3UoPlPkSj+7VJXB5iYxI9BdMcKCjt7fso+FOmx560sW2e/TkKN01rFYq9MlRl2MC5uPOqlbsmPxUhVDyEYGaeiMLPyCHZLZtL2pz/oNXeUXQZ6yNo5BrMtm2Ut50jgWsxE97T46+TSWMv9QD9vUQR50ZJ90YftgzE4oO3/F6i3TBerOgzGQV+bnmH9iyD4tlIulAe0yaB9jv0w3bEa+YtbLr/IfoB/tZ2NecQ46xlIG+aUz61j/lx70G9VFXt9mdfqQZhfkqm4t+MrbLX9B6rjCvvTgOPksKb4B9FcMkJdyHvRtE5cahyiDL8nLcfm9rCw6qBx1277sfcfSBGy0bdaEZjU1hAa0zpsWaKBptGtcoFPEAppOM85+Z9CJDTaLAYOTH0BBkykGnS6gnkEGoEwmk9mXYPwdBE0YuxrDx4lBfTNN6MdmW4b2zD3PLvFCX1dvZmcmGz68MDNT7PRhO7bPM6avv/56769/PWjB8f/6r/8z97Kb8otx2F+3blN4Po7nVf3xUULf43n7Y489tkjZC/5bsWJF7ecwU9m0aVN4qTPlWf5MJpPZl+FZcP9Vm8ws2Tfz4V0CPjrSliXM8IvtTuHrDV//+tdH9pLSqGDixJdHVq5cGd6OzqTBRHfNGr6OMbu/du3s2u+vWnVf75e//GV/Iv/b3uc+97negw/+v97f//733lVXHdr797//3fuf/9kT3rAvK7/Y+5s2vRNe6Hn33R/3PvOZz4Tjp3bzgZxk+HFBfDKJ//73vx9eNuKzhLz8wwtbvODaxQu+ehGyy5eFM5lMZhrhZVZeJB10vOQCGC+Vbt26dWrG3q58M+nwnXzO31/84hcXfOu+KUOZ3POLg7egdZV1WtBnqixD+m00lfCRi5RJ8r/+9a/e8uX/t/fnP/+ZI73PfvazvW9969nwTzi+9a3ZT2fVTbIXc/8///lPb/363/S+/OUvB335Mtfxx88eHxVcBaEf6msiS5cuDf9w5Lvf/W54E39QGIz5jGkXsjKZTCZTD99Tt18dW716dfgiWmY64McNXz3auHFj76qrrhrojvjQrtxnMjH0qIomu/vC/uc/z389nd3PZDKZTCaTGSZ5cp/JZDKZTCaTyUwJY/EfajOZTCaTyWQymczg5Ml9JpPJZDKZTCYzJeTJfSaTyWQymUwmMyW0ntzzNQ7e7F2yZElv2bJl4dOXg8Dnf/i6x5FHHhm+SjNs0B+d0X0U9XUFn8FCZz7J2QVdyxsV6MuXYPh6AEuX2FjEP4I68ZVNa0NXcjL7FsQLMcmYe+KJJ4YYZbvN+DWp/b4JjA/4Z5DPydUxqeeRTHNo37b9bdjw9TLmY12fC0dJPi92S6vJPZMf/knO9ddf39u9e3dvw4YNvdtuuy0MdIPw8ccfh297joL99tsvrPlMYGZ4DPPEetJJJ837LFiXHHrooZ3FYtc+GKZPM83hZMRJv2zhhMsEkHGzLZR/4403eu+8805vx44dYdz68Y9/XBzNxHjiiSdKvwVOW3QxScvnkUxXsdQWJsV8lphPKGYyc/C1nKZs3ryZL+wUe90x6n+rLDum8d84jwsrVqwotoYD7bd69epirzsUi8TIIPQnFwPLsPR/cAzF3sxg7N69e8/KlSsXjCf8C3Haf+nSpeEY8dCGLmJxX4L2qPrX7RzratzP55F9my5jaRAYf/K5ISPyM/eZocF/WxvVnZhxhDtZ+KAruEKzbt26Yi8zTvDPRvgnYR7+Q/c111zTe/HFF8M/Ervwwgvz4xsjgPa45557ir35cOeL/yKdyQzKOMXSIP/wKDOFFJP8JHQ10y+Cq1T8ciSNK1UbN24sjuyFqxxczSUP6+3btxdH5l+5J135/BUrjukqGUt/whOu1NSBXJVDduxKG9grbeTBrjK4koqd5AeVZfFX6aztZf6xtpHH2o4eti5Ad64ckKarVbKP/KRRRvKsTjF5wvqftcohb8uWLSHNt5O1R3XaReAz2kzpbFf5WMgW9FU51v5qRZnuVVidkK84lv+pGzmk2zYh3cY82/gFedJTC+ViclJ9amOeBRmA76w/YzFr24Ny1FcG9RNH5EOO6tW+hX3SOY69Vl/FpsphEwv2lvlNcNy2NTqgl0j1GXDM+g5fUV7U6ZIK7YmMsrLoy3HkW6zurG28Si+7UA/xZe2H1LGItrD5wJaVP9iO2WJ1EVZPYePcxglr63+PdJFtMTuwnX3k+fYGleG47Q/4WnpqkY3oJB+onI05QX7FEzpq2/tK7aN86JQCutr+TB+iDvlC6ZJHuk8TVbHlwf7UPgXWD/gMPX27Uk660e7IL4P6hjnusE0+2acYYamLq1h/q4olZMt3Xr8y0EF1Yzs2CPzKvo4j27cl9lqbycc+ulva+K6qv+IHGwfIYw2qh8X6xqchH3vI72M4VV/5iHzoTLl9mUaTe6HGsSgQ1Fh0BPLYhsLxBAHBRkOowRR8lGWfxpMctm0e1lauLVMF+pFPgwvl1FFUF6AjC/pRF/qSryy4kauBGB0IUOThCwU4kG7rkg/pGEKdW3lkuzox6apLkKaOhW3oyaJOiQz5m7JWp5g8oD7bTuow5CdNupPOtpVjO5TyWSiPDmoH6+O6zkgdMb2II1Glexnyl293yinOSNNgrjRAJ8Weytm6fP6YHNLkqzqfYqu1F9CdvNKdffQQ+FqDn3xidbJwnLppD2SQl33ph2yBXuzLXt/nSZcupHGcbXSs85vqtjojW30h1Wfk8zqxr7qhTpdUpE9ZWezgOAv1QGq8kiYbAPt8faTJfuxBNsdog7p+b8siVydsOz5ZfHmwadiiOCfdx5H6fwx0kR9Yy1eSj22yWfLU3kAZFnRQe2I/+0BZykiGqIs5oB7SpD8ykO3loaPaFdQ3kFkF8pEn+dLfypcOPh58WtOxkHzyJ3nZJq/8bn1M26KnZLFmn/rkZ2wYp3EHneUD1mqblLhirTTlAbZ9Gn63aSpX1pcA+dhu48WO8+iLTWpL6SxfA/nJIztUL7aLtr6TXh5sjcUBMoXqUB7wacjXeCFdoIm++AgZkoOP9mXmj86JKGgsONIOgoDDaWigkShjg0QNxTGgodi3nUBpalzJURmgHj/h8RAANL6FTuBlk8+iQEHXMuQP29G8jygvXwB5OW4DmeNVJxKI+R7bfVosn9JkL8TyoYdtJ+mqzpLSThCTTRvQXhbZWdUZNWDG9LJtX6d7DA2cFrU7Nlh8GnXbNqNu64OYDPDpqT6lPh/r2GxjRHEtqMfHvu+rHurw7YQc5KpsXZ8H5HjfQpXfSKce25/YRo6VneKzlPGiSpcmyD9VZTlu86TGK2k+jrytIB2s75RmqUqz+pSRKpN94tFCGnmrkCxrW8xepUleyhgek5Mac+zXnUfwH/s2LoE2Jd3Gogf53l8xX7DvfejTUmPLIt/UjUMxPfEv+eRndBm3cSfmy5h9SrP+rMpn07Df6iK/W1keynt9rY3YbNtNMW3rxWY7rkGXvvOUxTnlSRcxH8XSgDTrp1R9fczEfLGv0dkz97ypzfOk9isRr732WviKAG+T66smRxxxRFjD5ZdfTgSE51ItvPnt+eSTT8KavCrD8258iYJ6quDZ534g9k4//fQiZZYDDjig2JoFHclnbTjnnHPCsZQvAcWeedPztdj64Ycfhuem+YTdySefHNIF+fDVIYccUqTstZWyo0J69Dv3nA8OPvjgcMz7OdZOL730UrEVh+cT+YyfBTv7nbPybX++fIFONn68v5vobiGO/PPSMdtinH/++eG5er6YQtui36mnnlocbU4bnxJXxAj2owtfrrKccsopwUaO6YstsS+IeLx/+4NlWL/33nthXdfnBZ9v9FT57YEHHghtaOtnuz/QB9nqU6LKZynjRddtmErbeE2haiyqw/axLvDjLLzwwgvFVre0HcNTYi71PPLYY4+F9dFHHx3WYv369WFd9oUvyV+zZk2R0p5BY6uqTyEbPY877riwLy644IKwfvzxx8N6HMedUVB3ro9xzDHHhDXjk/qp9RV+ZME+vpx1ySWXFEeqUZsMw3fPP/98WJ999tlhPQxS9Y2Nd8P6kt6k0OkLtf1fYeFE6pcuThZvvvlmsTU7uBB8TPhuuOGGuc5fxqeffhrWduJcBrJiNpS9nNUEOvpRRx0VOtpzzz1XpI4nMR/wGb4uYODzxDqn5aOPPkoerJvqzkBx+OGHF3vNYCB/8sknw2SFtl2Mb/QyyHFSuPLKK8PEY/PmzcWRWZio6oTOyZ6TLSeepjBB9rTt83V+i8VIbJKYQt14Mao2tD7XyRxi/uuqr+2LtB3D62KuyXkElF/UXTB4//33i63uiPmhq9ji09UWP4aP47gzKpqe6/Hdyy+/3DvzzDN75557bhjP7Y9R/Maknotghx12WO+hhx4qjlQT80dXvtMPhmEz7m09rnQ6uX/66aeLrb3wzxUssasn/CJNhRP1aaed1rvllltCuSZX2N56661iqxx+7cUGIG9HU5gw8H8B+GrGrbfeWhqYMR2b+KcrYvYO6gPBVZ8YS5cuLbbivPLKK8VWNW105xvibSEGn3nmmTDg3n777WEQHhXEKgM+8fTqq6+WXhnjOJObmZmZkI+TR1Ni/SKlz5dR5Td+cJVNBPRt8RRSx4tRtKGu6DL5tBOhYfa1fZG2Y3hqzKWcR6Bssl72I1WTf92l7oJhxlbZ5O7AAw8stsZz3Bk2qed6D2MCX9Z6++23gw/5X0K6On3xxReHHwkc42JE3Q9FId/ZmOvKd5JZ1me6YpzbepxpNbn3v9iB25c8cuEn70899VRYc4sOrr322rAW/MK1V7Hq0K3BlNt7Yvny5WGt24Vl6IrejTfeGNaii0DiqiD/dCl2FQLwAZNbBgXbWfBnzN/DgkkOetx0003z9GCQsXdP2kKccDVHtx4FdVW1KQMkJ19fztJWd64qMXC2GaTsVV5uT1533XULHosZJjt37gx+ueiii4qUhdDHZBvxd+edd0bboA7dhtWt3ro+X0WV33hMBu6///6wFvQD2qqsD8VIGS+6asOqfoqP6NugOyup8domLkeF1W2U41QZbcfwlJhreh656667wlpo0r5q1aqw9kj+gw8+GNZ1WH/7GBnmOC7Z9H0rW9vnnXdeWI/juDMK6s71MfCJ/MIknwsRjOu6IMAP1rVr1y64O1KHfKeY69J33EEA6ViH/dGa+gN23Nt6nGk8uaez6tlo63BOXATj8ccfP/f8KrfCNelgQGDQI0j59c5x8iFDnUBXROwzxgoCDWT6tair2ay5zYheDCb6pWthYrhx48ZQt24NstAJgXophx4KJnSXjgzSVc+V6aqvHbSkr/TnlzhXnrFXusK7774b6qHTMqnAhzyjRxpXD/kxpEENVJd8L1u0LXw+kE5/+9vfwhpi+TZt2hQGYW4rogMLz6Rfeuml4XhKO4HaCr8gHx8TJ5wYeIREbYUvuJp/9dVXh/0YHKMctyzlZ52wsVtpdbrHoH3xO3EpnXS1gPaRb7S2V/mJIdpK7cAxndwBnRVn0jcmJ9WniiPqQp6uKD7yyCNhjR9sfSyUv+KKK+Zsow70qvtRTX9RnFKWR1roR7oSVdfn0ZG+iRwbX1DlN+KduxFcQVe7sqZf2glTV+NFlS7sL1u2rPaKI/lit9+Rj2yuwsH27dvnnfRT4lUnTxsvIPu1BuWR30C+kG9A+Wy7KE1tXoVO7EyiqQu9dUcOH2O3ZCseAT/ZdRn0O7A6x+zVceVPGcPVZ4gb9ED/lJhrch7ZsGHDgv7DRNv2Hw/p6M75lR+j1I8vrf8EPzjQjf5NHv0oIa/0bzMWyrd14xBX4+n7tL/8wDY+1A/pcRx32sYVxPLFYqnuXF8G50Qbe6CLovht27ZtQR4+0XiPLra/Uq/OM8jAP1u3bu3Edx5+MBCH3/72t4Mc6kMXylv0o5X4Jw95//CHP4Q0zrOqR2s7zqXqq3Oi0LZN2+fY04AdxRvOdumfBIujs8f7nTuk9xt9wVvUvDXO2/Mc7wfrvLft9Va3lRtLQwZr7fdPKEEO8vxb1R7kkY+y6EE59KUccoG15CmfjsWQLlqoI5amrziwj3xkUjdp9usJVsf+QD+vbi831h6xtDKdYvIEb/xLX/JJR8rZMhyLpYFs9G2DLFs3dtKOddhyii9k00bWh2W6V4EsW0YysA3dvF9lI3WrHItvM+xWftJjcpr4FFuwmTplF/FEHtKQjy3skw7Yon7JwnadT6gPeawpQ53o5KE+ySa/7fOqT4uNrzq/sU0eHacOWz7VZ8iRDaxj40WVLqw5RloZvl6/UC9tYO2zVMWrdLcLfvB1su/zpqYhL5avDnxCXnRHZ8nGr8i08lhiaTFSdGafdJ8G+LluDFdsqY8AeapiTlCvlY0M8trzCNh8+Ih2rsPqQBlkyk6rC9uSLRvYZ9uOpVWx5Yn5s8zHYMdM1W3tH7dxRzK1INensZ/iB6uTjyVslF/kE3Qlrcx+dLS6kFfjE7CNL1jwK23MNmXkc2SjC+nIoE4bM6KN78qgTumt9tW+BZ1JQzeND9RNOvqzrzpZkCGa6htL2xdZwp++AzKZTGYOXanmOfRMJrN4cLWSO7j9SUq4Az7N5HFn8qENufKfp5aLS6cv1GYymUwmk8lkMpnFI0/uM5nMPHhOUc8w7tPPLGYyY0DsnYlpJI8704HaLrfh4pIn95lMZg5eeOKf3fASEy/jsa2XuzKZzGjhEQd9uYl/xsUjOtNIHnemA/2TKchtuLjkZ+4zmUwmk8lkMpkpIV+5z2QymUwmk8lkpoQ8uc9kMplMJpPJZKaEPLnPZDKZTCaTyWSmhDy5z2QymUwmk8lkpoSpndzzr4z5d8X86/jMcOBTV/zr8xNPPLHxVxxoH/4dOu3j36hHJm/ds86MD2ov/Tv5SWSQmB0WZWMV/YJ+sBhfnMA36FP2Obth91H+hb7+jT46oMukfSlmMduvS/K5tB2TGrddwrkC+8vGkczwmOor9x9++GH4tNYoIHg1+fnGN74RBnTSfv7znxc5ppP9999/7tNXTdhvv/3COtY+TzzxRG/r1q3Bj5mM4ETRxUSpbcwOk1GOVV0wzD7KRJI2Ovvss4uU8aer2BxHPv30096rr7460vhkQsgPo7KFT4Ryvh3kQkPTH6YxPWLLtMZBG4444ojeBRdc0Lv44ovzBH/ETO3k/gtf+ELvhBNOKPaGz/PPP9+79dZbe2+//XaY4J922mlhACKwp5WDDjqo9QmYTn/AAQcUe3vR1Y48sR8/iG8mobTdYnDHHXcUW+0ZJGaHRdlYdeqpp4Z/4c561FxzzTWhrfGXZ5h9lEnd4YcfPs9mdEAXdBpXYrG5mO3XJeh/1llnFXujgbbevXt3b+XKlWF/x44dwZcsMzMzvTPPPLN377339lasWNHq7hFl3nvvvWIvDXTZtWvXnB6rV68O6dpH3w0bNoQ0mIS4HQWcL2644YYwH8qMjvzMfUfoREeHvueee0Jn52pH7OSYKUf+y2QsnIw5mWcWn2H1Ua7CXnvttb1LL720SJkM9oXYjF2IGTbEWexHBT+GmTC/+OKLvaVLl/YuvPDCRlfL9ZhRE5B/5513Vl7YQN+bb7556v+TcBv4gYh/9uVHlEZNq8k9z0LyzCq3oOwzZfZWmtLoFD6NQZxbakceeWQ4TjpyWPQrnMdZ2KcceYV9VpsrSEyqyYMsPaNZh+qjHHYgswqOq55YGXTmVylySWebfKz9rSjstb5jkPF5sE91ISPl0Z4ym5BNefkaH7FNPuvXMiiPjtIHP3h9U7G2o8O2bduKI7MQF1ZXUef/Mmxb4BtrL/KxS20kG6k7VbbVifLohVzaQulsA+k+Tdg2Ya0+UAb6WrvYtv6CsniookoP9VlkeurqivkKG6xPsEH4NPTiBA7cEeOY7OWYYoqlbXwqBmRHSjsAtstnlLUxht3yGfLlA/KjdxVlfQGszcj28VSlk6iSYfX2SCfZYcth4yBjDVe/uRrKJEAg046vSkupR31Ei/yIHJ+m9le6jyN8ojpY4zug7lhs1rWfZPmFclDVhrYvoiN2su3rEcojWWzbvByXPPJgGzrGsLK8bWzjQ47LXyzyo7WbdUr/qvpRwSR/06ZNYfuWW24Ja/DjDfaQBvjujDPOCI8Y8UOS4zaG2bZ+UDkmpyl3YIhd7gxic1ncIpe0WNziQ6VRVr4T6CP/o6eNixhWB1s2Jpu60U2yNU4D5UnXQl7J0iI7bbrl/PPP791+++3F3kJ8HZIHNj2GjT10Vl/Gl2pDQQzY+GDb58FvNg6QN3HsacjWrVv39H8t79mxY0fY37hxI//hNqTDzMxM2N+8eXPYB5/G/oYNG0Ia6127doX0devWhTRkSj5lSKMMkN4/Aczl2759+5xOpEkWqKyF+lh2794d8q5cuTKUZb+MFStWBN1Uhn3KAWnoQD3kQTY6qu4tW7aEfEA+6zvW7CNL9ZMf+9hnQZ71ZYwqm9iXLpJFvfK1/BqD8siSDdIX/SzIqdNRMeBlkSZ/kEe6Kg2q/F8GssgnOdRr9SRdcvALbWPbsQpko7tskc+9LbY+iKURu5RFhtrbyomBfsQ+qG6bvyoeyqjTg7VixlJXl/eVfEwZIB/tYGMqlkb93i/UR5ptU/blmypsOUAf6pT9slV2xMBnVifksY+NQHrbsQq/Kc3arPJKQy55SIc6naBOBumxtiafYgTUp9SWpKs+0ti2srCpDPxMHspYkKmY0bHUepCJvqRZ+wFbFJPKp31k4R8bf+zbdmVfsE8drEVZ+8kW317oLuraENmylWOko7+3UZAXewHfkdfqxD5+xA8sbFsdQTogh3o4hg9YFA/I1JhKfvzJNsfJr21bh9UjRsyHFmRxnEV6oAM2c4w06WQhP7It6CQ/UI4y2Md+DPXtGJRXW6se0tRnKCubbD+yMUia9oF2xxZfztsh0Fs64A/kU1Y+tbLJh62SzZp9fCD7Vc7W58cOQTnJEuzH8lpUh+JVoIONNQ+y1c7YiT3WdkF55Mh2284aN1jbushrx4JJIR6ZFWC0bRwcgQNtoLDvA86nqRFtAKjxY2mxsrbTKR8NK5RPqHNYFABWf48NBlBAW9j3AUma1Zu6fR7k2vrJb22Aqs6QYpN8Q7qI+dpDea+LbFdHAPatnTHQsUyW1SGmV4r/PXTo2ICDLEGHJc1CWl1HjrWjYs3qHfOLT7ODCBDT5LEDkgf9rG2UV72DxHidHrJRpNSlk4qFuqzcmM99WiwuqJ80G4u0p5cVg3K2HdDH6iQ7bH0ebLTxJJ9ZufJZ07EKYjZTX9X4m6JTnQzw+hAb7NsxBPAZ6WoD6dx0rFEeq4OFY9aG1HqU5scCGyPUWTfOsW37h5UXqxdi6dTr+wxp5BMpbaj2sTqVgfyy8YJ05Nj4ZBsdrQ4+HkD2Wd/F7ANk1Y0vMVSv962F4zYPddk4ip0v2Lf+pJ2bjpu+3WL4euQzmwZladQh8JWPY39Oi4Ecf77y9WG7z4Pd5LP2k8+2Ge1I/bYsab4/gcYQX48nFkPYnVKu7nyOXj6Pxj/ZRRvF6p80Gj2Ww60PbmcdcsghRcrsrbG+nN7ll19epIwOe/uWW2b9IJu7rRnj2WefDS/E6HYMyznnnBOO+dsyFl6KwT7d+rntttuKI/OJ3UJ84YUXwpqy1H3ccceFfaEXbh9//PGwPuWUU8ItIeqRLdw2KqOJTXyBwvPSSy8VWwtBJ54ltbJl+86dO8M6BfRAx9NPP71ImSX1Oc5U/1seffTRcLvc6s4XUohfGyM2hgQ+LUO2rFmzpkhpj/pTfyCZ0/Hggw8Ox6q+5sLtTfzAbUtuQfIcqG4Zt4nxtnqk1EU78IKkhfZMuSVfh8Ye1rr93PYrOJRnITa41X3JJZcUR8ohJrGFNuB2+8knn1wcWUjTsSqG2qlq/K3TKUVGjMceeyysjz766LAW69evD2vfZ5qONTp27LHHhnUqdfXg6/7JPbzQJ/ABfUikjHP9E394/ltxWzUmV3HggQeGPuOh74kmcZXycnvVePHAAw+Eum18so29xAm+KgMZlPVxzKMQlrbjS1vanC/ajJujJvWcFqOLuQlcdtllQQ9bH+1K/yG24P777+9ddNFFYduiWH399dfDugz6KvrYcwRxmvIuTt35HD15zMbC+Nef8Ae74JhjjglrzieK/7b9fTGZqhdqTzrppGKrHAZ6TmR+qXpBjECmoa+88sowQe3/4i2ONOfjjz8utmbxwciAqQGPTsPgpE5TRhubUsHWmOwmwc6n1MBOKJrQ1v/9X+BR3VNOiGW8//77xVZ3xHR85513iqML4cT15JNPhsH5qKOOmvdsIrSNh1iZKj1gmLGXAoMvkwk+zchJAX3aQB9jUs8gf9hhh/Ueeuih4kg1TL5oA7688dxzzxWp9aSMVW1pq1MK6ssiNrkeN775zW/OmyzcfffdC75iVjfOUZbnuokx4q3smfQ6rr/++vDDTn2WieMrr7wSJk2WLtuwbrxgMuxJvfDiJ/JVxPxbN77UYc+NmpS1PV8s9liWwjDOaaJubgLqN/qxz5pJMT8w+GIgEGf68dgG/4OcMZ4fxV3YCLF49z9uX3755fBFpnPPPTfE0rj8wGtCq8n9W2+9VWztxf7KWizqJsHAr7hYvqoXiDjhE1h8/WbQX3Bln98ieAV1MaDMzMyEOgmuKpra1AT/0itQl37RNiEWN3UM4v+nn3662NrLoD7RZKbLLyLEdKrTkwHwmWeeCZNQXlKyL1a1jYc2eqTU9cYbbxRbe+livCAGeYmRSRfyBjmh8B1mJlF8ypbJUMqklUkSkzW+2sFnQpucfGI+S6Vq/E3Vqe0YXvbjNnUyuBgwZnCh5Cc/+UmY+C1btmzBxCVlnEMOk1Em4lzVresbMbhKyEug9AmuvPJy53XXXTfvc4mDxFUZVeMFE7OyeNT/IymDcvbcVUWb8aUOTTKZDNKm6NP2fDHM82hXDOOcJlLnJtzVue+++4KvKKM0JuPoYu+KtcVevX/kkUfm7hB2AXJj8KNbEEv0Sc4H2E8/tXcrJoFGk3t+GeMABh7bCfhV43/12f1Yh+kaHM8Vb67SlKGrejfeeGNYi6rOwW1ZBr/YbaYmMLjiO3v7CrR93nnnhTVXbJTGiYDPb2FX2WS6jU2p0Emp25/0f/rTn85dJUlh+fLlYW1v76XS1v8MNvja/+J+6qmniq12yJYHH3wwrOuo6geKiZtuumneMWL5zTffLPYWYq+88WUGJge69dwmHtrqkVIXebiyY+OXOv70pz8Ve7N43/j9GHr8YtAf3MCJfe3atQsmfVVwhYor8PTTJqSMVTFSxt86nZqM4Ra19V133RXWQj9yV61aFdZt4XFEqHp0ZxB+8IMfBJ8zLlx99dVF6iwp45ztc5z08Yf3RQr0A8ZB6uKKK1cR/XfQ28ZVGVXjhSZiPEphIRb4QVSlg+JY564y2o4vUBWTxCxxDLo63/Z80WbcHDXDOqelzk0EE20myFwQ0aMySvve975X+r99JC/lxyo60SZM8rno0tX/JsGHxKyfT6GbziMc03HOB/RVYko/JCeG/gDTiH4nCi8f9Dt+2OYlh34jzHshh2P9YAkvpPAigsqQTy+98GIDafaFqNgLHHqpxb6gIXmkUS9Lv9EWvChBGvn0UhQoTfojA73K0MsWqh/9yU8aurEoj5WDTqRZnfTyktWbbZsHndCx31Hm9vElecuos0l+5ZiQX6teUqFOZJIPeZTXWviXUcqgHvJZ2+VH9JO9PgZS/B9D5VQWnbFF8SfbvG9pC8rYNI/8zRp5tKt0knyQfHQs6weyl3z4iIVyVfWrDcjDgh6kibp4iJGih/S31NWFnVYuefAx7SMoQx50wFfkIw9lKI8Oak/ZTbp01stOrNGDshxTTHliMUtdlEM25axOLDEoTznkUU76KN5APiONPCyUoy6L/Gj9Inm2fsmTv/EV/kYuNNGpTAbE9LE+AfyEHZQXqk91QcpYA2V5Yu3VtB5swy+xfsAxfEFZjiNTa0FZxRl2y3cg/dhHlu/b8heQR/VoIY088n9KG6p9rOwyVAeyWChLGrBv+xqwZt+OrdJbeqrt0UmQLj/auAHZgFzah4W8lClDulFOugF1ow+yvJ5qC+lFOWwljXzKSzn5QGnyqdoWGcrjQQfysnhbhXSxcUsMkWZjNJYP20nDfvlI+VgUC+gq35DP2gUqY9OsbCG9kMtxFrZtHgv1Wn2BuuX3GOhJHepHdSh/SoyjLzqhA9tC8aM0/EEe0mlDQD5p2qdejsuv0kP7k0LjyT2oY2EwDWydCThBxxXE7LONA9XZtCDPp7FPuk8DpRNIOqagFLE6gDzoIf18uRjkJ686EoMB+6Sr4e0SSxOURQ5p8omtn0BTQLKwTUBWUWVTzIdlfo1Be2nQQ778CFV2xqCs1RGdsY/Ojr5eL9VV5f8qyCtfUlaDOKgOLWXtGANdFXvIRX/pbsuwLXulq9pcAwnQ5ooJ2qKuvalb+Vl8H6yKhyrq9JCNlpS6bMzH4hlfqJ2ol/KskWX9KZ/Ll8qncsiRLmUnkFg7A/kpx4IfkMW29ImBHbKLesmHHaTJRvlMumvbypQNWiijcjZNsC1/+7ZP0QmqZHh9bBvYcsjEV8LrjJxYWhn4xR/37VUmM6Ue/GFtsVSNc4APZTdrxaDwsen1kTy1j9rILtK5rg3JZ8t5XT3oZuuLjRc2PqnL+4k86CI5rG3bg8pr8TKajHPef36hPPKsHQI9yUNd6BA7X9DfJUcyZKPa2fdTEdNNbSfaxi2LL8siOEb7kIZ99pyGrqTRvhCTUyXbjtOK8Zj9gN7IspC/qk1pL+SWyYyRmt/bVGY7+D6Ev+z5mHz2OD4pO5+MM0v40zdgouA2I/+AYgJVz0wpisn+wBBuKU4jud81J/ssHR7T6J9Iw7/xb/J41CTBLX4+LODHCB61+NrXvjbwC6aZzLjCYy8nnHDCgsfQyqBP8JjyOL3QPElM1ddyMpnMcFm5cmWxlcl0C8/ibtmyJTzrPo3wHC+fMoz9+OfZ9ty3CviBMzNT7PRhO+8XO30mbb8PE/Vdu3YlT+yBiT0fN8i0YyKv3PP1GF6AI1hSXs7IZIYNX5/gJbXt27d39vLPOMA3gbmK+vDDD/euuOKK8HJVFy+w7ivksao5fP6XTxhOW5zxciZf2Vm3bl14AVH/M+CDDz4IXwRhItPVS7QTDRND/o+IvmC0du3sOu/Pridpv/9DlpdVeVH55ptvrr0jR9/nDt4Xv/jFMGb6l9wzDWByP0mgsl149iuTWUzs83nTFpN6FpdnH3Nfa4aNiWmLi2HD87/+md5pALv0bD8Lz/PSx+wzv5k+tP1///fswnben8j9v/7mN+F59dTn7NU3qp73z6QxkVfuM5lMJpPJTDF6tOP442fXeX92PUn7n/88/+lsdj8zUvLkPpPJZDKZTCaTmRLyC7WZTCaTyWQymcyUkCf3mUwmk8lkMpnMlJAn95lMJpPJZDKZzJTQeHLPZ42WLVsW/jnLODBu+mTmQ/vwOSs+qWjbiM/C8ak7PhU4StDhyCOP7C1ZsiToxPd3qyjTEznEHfY1ATmjtrkLxllnPp2mduVb4osB9S72GEQs8yk54lKU+SZl3FTfndSYzcwyDv1jMRil3YPUNer2oY6qfj8JxMa6VBZr7jFq8pX7TCMYiJoOQPvvv3/vtddeK/ZmiaW1hY7uByv+AYafuPMt+jfeeCP8F0j+k+w///nP3qZNm4qjcbrUs4px/J4vkzsNoHyrnTWDIoPjOPHpp5/23n333fBd5FFDjOGT0047LfwnWk7Q+MzH3qj48MMPQ1x72vrmpJNOCm2fmXyG1T8YD5goEfuMw4wb4zR5HOW4MEhdw9Zz3MaqQSkb6+ro+pzOvIKLhTqH40/OlYv946Hx5J5/QoBTm/ynsWEybvpMO3fccUexlQbtE/unTvyXRgaXQeFEwkTetj8nli996UsL/iEM/2SKf38N1M8kv25SXaYn9RF3df+Uw/PMM8+ExcIPpgceeKDYGx80OL399tu91atXhwER/911110hfVygnb/61a8We6ODdjvjjDPCwo/FzZs3937961+HuFiMCTF+UHwL/nHWKaecUuztJWXcJE/+x1uTT1kMdMUnn3wSxjTGhfvuu6938MEH9w477LDi6OIxbLstg9Q1Cj3HbawalNhYl0pXcw/x+uuvhzU/lOD9998PPzrw62JeCMtX7jPJMBG+9957i73xYOfOnb3DDz+82JuFE8yk/KdHfpzwHyvHDe7OMJm/6KKL5n7AcBJiMsh/Dxw3uBozah577LEwiNt/kU7c/exnPyv2Mpnph6vBwEUcLpjwdW2lZcaDPFYND37Y2i/K0w/Y5wfUYtJocm+fwdRtN1051TPV/FLhVxG3KbhdAUwUlEZZygC/JinLMfKQn9sZLPa2Hsf4VURZbnmQn4Uril3qA2zrUQSOk6/q6i75rQ5sSzZyrGygbnTjOHX4PF4WecoGSmyzfpFc7Ys6m6x/lVf5JIe6LrzwwrDNbT2OUw7QVTZTh/zcBuqRHSzY7n3o4RYjeSkLXI1gH3uANfugvIoXYFu+oW7ruxgcV6x6rC9YSyew7SXYZhLNr3yrM3VgO2kxvZrECTRto+XLl4c1/xbfc+utt4Y17WL7L/apjpj8lNjHBuzCVtbkZU0+xgulUU9ZO1G36kA/YeOcsshgkQ62zhQf6eqk7UvAjyF7RRy5ZW1J3b4t5UPvH7A+Zu3rTsHXaeGYYps6ymKqri09qWO9UF7Z6fN4nyGnKv4VEyyUU1wojUUoBmxaGb5t5QdsVBryhE8jL7rgS2yJ9SFkKY1y8nNTn8aoiyfk6DhypRNQv+oE8qp+L8fHFfZSt0V9UrqQpwpk4m/JjOnfBGsr65h+ig3qtL6IQT4tYpDYsuMGNOkDKWNVansSa1XjKMfrxgbfdpJlaTLWpfa3KqhPerPgS+nN2vc18mgcQfcNGzaEbcEjwCeffHKxtwjwT6xS2bVrV/j32RTTv1InbcuWLSFt9erVe/Qvw5XGv9ZmGzhGmvZnZmbCvxkmjX87zL8pRv7KlStDGvtAOf5NN+nUS3m2f/e733WqD3CcupDDvz/Wv0Mu+1fI5ENP1YceyFU55Al05d/4SyfW7GML8llkD+XRC/8g10NeW5562Kd+ymODqLOJcvIvedHB6iHIRxprIduVpvopbyFNbSSwy9qGfjaf6sMHVSDD+lU6+XIxHbCXBV9QPz5AlnwDXk/qkQ8tyKG8/EwZ8mifcvjZygIvH8hHHdJL7QOkpcYJpLaRB3vIF9MP0EuyyMu29Q39W1BXXeyTRjlsVd9HhnRAvvVHLDZJoyz1IZs02Uke+RFZ+E3tRT0ck34coyz5ykAX1SH9YkhXqzvlgH21j2Sgg3yIXwX5pC+y1D7SGShPmkW+UT7KK368ztQbq8O2f11bxkgd64F80gHUFvIFdUh/ZNXFP8c5RjnZZO2Wry2xNA82YTfyQTpZPWlrq5dPw0bZR5p8am2WfLWj9pv4VGUlH+riieN2X7FFHUD98hN6kJ+82IdfLNSDfNsGlLM6UkaykeNleJBBXdJfurAtkGNtKANZ1he0BeUUgynjQ6yu1NiKlaU+8qIPerCPjkBakz5AfsUFeXy/h9T2VBrykEPd8h06kVd2sGaf42oX6aJ4oBx5kCnqYhMUj4J8yLA+iKUB+zaNepAlv1CP/AAcV33ogp3yI3lVTlAOfy4m1aNXCdYJIEd4A8vSrFNVVp0aaBDf2JSx+5Yu9SG4WYQ6EDKrII8CQSCXdAID0N/n0SChARvYJ4BSoA46gQUbkaGBM8WmmBzSrG/kV1sOvW3Hp+3Ik+J7L5/OQD7bKdDJ5hkEr4MGbIt8Y9vD6wnysZDuamtQ21p7YrJiafjU6kDc2PqA/ZQ4SW2jGLKzLL9iwvbfWJw0if0U/7BPXhGrs8k4Qv+wEw0g9qzfYlAHZambvNYPIrUt68YP5Nj4Ujvavu3jEmK+AdJsm2K/rQ9Uh/V/alt6pIf1kW8j6vZ5QD62fYn9lPjHRp/PtnXMZ7E0Dzp5udhi2wO/Wd+BT5NfbFtAWVqsbJVPIRYDdfFEW5JH6LjVSX7imPC+U1zZPGyjn5VPHquP748e9LS+xgfIsDbG7PakjN3UUzc+xOryvoBYWqwsslPGjdS5Aj7HDsogOzZWpbQnEIOxcTRlbGDty6KX9SXbVbEJZXrZ/gEpaYoBO774uYfaqC4ux4WxeebePjPLraKzzjprwdvj3BIZNtz6YdEtqksuuaQ4Us8BBxxQbM1y/vnnh/UHH3wQbuVgz3HHHRfSxAUXXBDWjz/+eFgL/xx5FXomWvQDMqzfe++9sE61ycuBupdteIaPx2B022qQ21A8A9iPybBGX26lDfNLNdhGm+g2HMs555wTjvlbhHXITzyXLvCN7GkKPqW8boHyMnCMlDgZpI24Zat+yCNN3LYkjjyxZ95feumlsG4a+11BPHNrNWUcefTRR8NjZzYWiD2eU43ZK6iDWO0P+CEv8eNvQ6e2Zd34gfz+SXFOP15chK76yBNPPBHk2xj2Y0IXbVk11vNsMBx99NFhLdavXx/WfjxKiX9eVqSN8L3asuzxhSYQM75+2pq6Rk3K+dOSEk9Nxg0fJ0AdwMcCqMfmYbs/UQs6KB/76C3/1bUR+VjanKstKWN32/FhELo8BwA+x19VY5Woak/hx1GOp4wNrH1Z9MJeQM6wxzpPk7nHIYccUmyNN2P7Qm3bN6EHhUBnoOj/agvPqT300EPFkeYce+yxxdZePv7442JrllgnGhQ/mezSphgM/EcddVT4MfHcc88Vqe2gY9PxmWjccMMNcz9UhgXy6dR+ueeee4ociwMnDAaYK6+8snf66acP/HLOIG3ESQ8/bd++PQzenIDbMIrY9zT5kbxjx45oLNiTfhkM+LQRCy+d33jjjcWR9m0ZGz9i+vESYxd89NFHyRdQumzL2FjP500tg7wwzdcxdKJmwlA2oZkmUs+fdfHU1diuiZvF/5hlUnXLLbeEcZ849M+8e4Z9XvMMMj60oetzgKgaq7qgq7Eh5uuuxroYo557DJuxndz7ABkVF198cRjEeFmXX82DnFT4RJhHV9M9Bx54YLE1OP7E1aVNHl66uf7663svvvhieNFykIGOzsXLugzwDPSclIcNV21iJ/q6E0sZsSv+2NIE9OGEhS9fffXVga8ydtVGfAWAHz1M8Gmrpowi9j2MI0uXLi32qnn66aeLrb00jQPudGzYsGHuq1KDtGVs/Ijp0zZWY7zyyivFVjVdtmVsrOdzcjH8hDAV/E/szszMhHZg0tQFvDTnadrfh0Hq+bMqnroc27kSGxtnYb/99iu2Zq/WM4G77LLLwpXlqtju+rxWN3Z3MT6k0vU5IIYfq7oiZWyIjTP8mLHnlarY7JrFmHsMm7Gd3HMbjMAbNUz21q5d28lVxaeeeipcKSJQWJhk0JHsIKft8847L6y74Pnnnw9r3Q7r0ibPCy+8EP7RTZtHTzx6jGMYA1nsxKJf5v7KRZsBRN8p5tEVC1e+jjnmmGIvjZ07d4aTIZ+h7II2bcRgF/ODTqD2hFzHKGPfwziSEk88EoB+/gRPHy6DyU8srrBVPygGacvY+HHTTTfNq5MT4ptvvlnsDQYTCXSt+uE2jLa0Y736pP9fCvqhs2rVqrBuAn1Q+tEH7rzzznAl39tp7UmZHKMruls5yPjTn/5U7M1i5YLfHwZ158+UeOpqbNfjZffff39YC3xMfEs+/Ukw8cS/Vf9To6vzWsrY3WZ8sDSNra7PASlj1aCkjg1nnnlmsM22N/A/dLoY67ydMbs9w5x7LBaNJ/cKbnvF4m9/+1tY26CN5ZOTWXuHc+uJxgMandt4V199ddgnL7/m6cy+c3WtD0G1bdu2sI8++hTgW2+9FTp7FbfffvvcQM+aILeDE1eOCGomk6qTbX6hK6ikJ99ql0514Bfphs7cUtq4cePclZY6m0jHv/yatnVqW2tN6OgIpGEjv8Yph96kSQ/+Y6g6b5nvqZNF8nVVTldLWOs4chUfbdCzvFYHTioatLkdh77csqfN9I+3YnqC5Mg2BiRORrQFVwUli+M6eZXJkg9JY0ItP6ud8DMnWuA4S5M4SWmjGDzDaif46MGAi52yiRgCDY6giZjtfymxr/a19rAd85m2fUzgM9I4jv+J/Ztvvjkck6zYOMIVSvQ7/vjjQzn8QkzUnVxpayuLmCWerrvuurCf0paibvzgvykzKeUxCR5HYOERqUsvvbTIsTAuQW2kNei47Q+Mt/jr3HPPndND+uE7paW0ZRVVYz1xxaTUj2nEnR3TpH9K/BOHV1xxxVydxCp2auKmzwRiAzbiVz2vTnv6GBOMs4C/KIMtxMPXv/71kA7oS5thC74kH9AfqQvdh33+hFgM1MVTyrgh/RQbIDs0DnCRidioi2+Oa+zHFvoqE8EyUs7VMbs9KWN3yvgQqys1tnzZrs8BUDdWQUp7UlfZOJoyNhBftB0/puRLdOPRI9F2rEvpb9LfnlNS5h5qm7vvvjusm4CNvDtg/Tp09jRAbwtr6XeIuTeWq9JYfFkWK7M/yQpvSLONDPvWsi3DQhkYhj68CY0eLLzV3e+IYRs59g1yD+XJs2LFirDNOvY2OmnKg1zeLJfcMp2qUJ2sJRN7LXU2+Tpjesjn/RNv2Ncb8bST7JEt/Y4c0jhWZpNPIx9lZQdr9EQmug7yhrpk+vqAOlUH6din9oBYOS/PypJ/kCcfCVuGReAn8stnQFnykIZ84oZ90tm3cliqqGujGPgeW8inOshPbMk/KX2NNNE09pukAbEtfb18KCsn2Fd59Iz1Xwv5GbdkEwvlfaxWtaVgH19JVln9+tKE8tv283FJW8TaAx18mkCe5EgHfEks2Lqq2rIM1Vs11gv0Vh7qwW7h9WepwsYFC9u+TnTiGHVxjPrRrW7csX6IyaUfqW7k4SPW+BM7Yu3j01jKbE7xaawOURVPbOuY2hdb5CPyW7nymU8DympsZEEOultIkw2KqSrqzmtVdnusfmV1o6/aEh/Y/llVV11slZVFB5Wjbupjn/SyeCiD/HVjFfVaedLTp9l9Ft+OKWODjR/yxvpZ07EO6vob2HIspCufyvm5R1kbpYItyPK+GiZL+NNXdtHglwzPOvWNDr+gJxV+lfUDYO4fQowKfvEC/yUtkxkWxFmOsXIYx7gi3Lb/L9b4MUqmZawfJ7JPM00ZdKzKTAZj+8x9JpMZHx5++OFiKxODRzzyyTKTyYw70bHqnXd6vZmZYqcP23m/2OlTtz+GLPrkXs/q6rnDSYRfwsCziKOE58H0rLaeHctkhsEwXsaeJgbxz2KNH6NmGsb6cSP7NNOU6Fj1v//b661Zw2A0u7Cd99P2x5RFfSyHW/28lCFWr149cbf+eVHCv2U/Cpfqdqwl35rNZCaLxRo/Rs00jPXjRvZpplOYqK5dO7u9bdvsOu/Prqv2+UTq8cfP7o8Ri/7MfSaTyWQymUxmkdGjJpqs5v3ZddX+5z/Pv+ud3R8j8uQ+k8lkMplMJpOZEvILtZlMJpPJZDKZzFTQ6/1/obPrkL0h2c4AAAAASUVORK5CYII=;" vertex="1" parent="WIyWlLk6GJQsqaUBKTNV-1">
          <mxGeometry x="80" y="10" width="759" height="91" as="geometry" />
        </mxCell>
      </root>
    </mxGraphModel>
  </diagram>
</mxfile>
